<?xml version="1.0" standalone="no"?>
<!DOCTYPE svg PUBLIC "-//W3C//DTD SVG 20010904//EN"
 "http://www.w3.org/TR/2001/REC-SVG-20010904/DTD/svg10.dtd">
<svg version="1.0" xmlns="http://www.w3.org/2000/svg"
 width="330.000000pt" height="330.000000pt" viewBox="0 0 330.000000 330.000000"
 preserveAspectRatio="xMidYMid meet">
<metadata>
Created by potrace 1.11, written by Peter Selinger 2001-2013
</metadata>
<g transform="translate(0.000000,330.000000) scale(0.100000,-0.100000)"
fill="#000000" stroke="none">
<path d="M2185 3286 c-17 -12 -18 -32 -12 -335 6 -281 5 -321 -8 -321 -12 0
-15 13 -15 58 0 37 -6 66 -17 81 -13 20 -17 62 -21 267 -4 230 -6 244 -23 244
-18 0 -19 -12 -19 -224 l0 -224 -34 16 c-33 15 -33 16 -40 96 -3 45 -6 134 -6
199 0 114 -1 118 -21 115 -20 -3 -21 -8 -20 -180 l2 -177 -93 56 c-51 30 -111
68 -133 83 -74 50 -80 52 -108 29 -17 -13 -34 -18 -49 -14 -14 4 -53 -5 -95
-19 -39 -15 -74 -26 -78 -26 -4 0 -5 38 -3 85 6 87 2 100 -26 89 -13 -5 -16
-23 -16 -99 0 -98 -7 -114 -58 -130 l-23 -7 3 109 c3 105 2 108 -19 111 -23 3
-23 3 -23 -131 0 -121 -2 -136 -20 -152 -11 -10 -20 -30 -21 -44 0 -14 -4 -35
-9 -46 -5 -12 -9 56 -9 173 -1 150 -4 192 -14 192 -34 0 -37 -21 -37 -271 l0
-246 -39 -49 c-90 -114 -171 -289 -171 -371 0 -23 8 -38 31 -56 24 -19 29 -28
24 -49 -8 -32 -59 -88 -79 -88 -26 0 -20 -89 15 -230 17 -69 31 -134 31 -145
0 -20 0 -20 10 0 6 14 34 29 79 45 38 12 69 27 69 32 0 5 5 6 11 2 6 -3 14 -2
18 5 4 6 72 -45 177 -135 93 -80 196 -169 229 -196 33 -28 79 -68 103 -90 l42
-39 -15 -62 c-33 -127 -36 -137 -45 -137 -9 0 -130 100 -172 143 -15 16 -44
40 -65 54 -21 14 -78 60 -128 101 -49 42 -91 77 -93 78 -2 1 6 12 17 23 25 25
27 54 6 71 -21 18 -43 5 -52 -30 l-8 -31 -38 34 c-29 28 -37 42 -37 70 0 19
-3 42 -6 51 -9 23 -45 20 -51 -4 -4 -15 -11 -19 -24 -15 -24 8 -24 8 5 -100
13 -49 34 -134 46 -187 13 -54 27 -98 32 -98 5 0 53 -39 106 -88 53 -48 123
-109 154 -136 32 -26 56 -51 54 -55 -3 -4 -46 -20 -96 -36 -88 -28 -93 -29
-121 -13 -27 16 -28 16 -17 -1 14 -23 70 -61 91 -61 9 0 50 13 92 30 73 29 76
29 109 13 20 -9 37 -22 40 -29 3 -9 -13 -241 -24 -331 0 -2 -10 -3 -22 -3 -30
0 -128 -102 -157 -165 -47 -100 -37 -169 34 -240 52 -52 124 -78 215 -77 72 0
406 70 493 102 138 52 217 146 217 259 0 119 -77 227 -167 234 -23 2 -29 9
-40 52 -18 72 -17 78 27 103 22 12 46 33 54 45 8 12 42 128 75 257 192 742
185 716 217 747 42 38 77 145 73 221 -1 31 1 69 5 85 6 19 3 35 -8 52 -9 13
-16 42 -16 64 0 30 -7 49 -30 74 -21 24 -30 45 -30 68 0 24 -11 48 -35 78 -19
24 -35 48 -35 52 0 5 -18 20 -40 34 l-40 25 0 345 c0 189 -4 346 -9 349 -4 3
-16 -1 -26 -8z m-344 -408 c37 -24 68 -46 69 -49 0 -4 -11 -10 -25 -13 -17 -4
-40 2 -75 21 -41 23 -50 33 -50 56 0 15 3 27 6 27 4 0 37 -19 75 -42z m-198
-1010 c38 -23 71 -47 74 -53 2 -7 -3 -42 -12 -79 -8 -37 -12 -72 -9 -77 15
-24 39 0 58 58 14 42 25 60 33 55 14 -9 -35 -222 -52 -222 -5 0 -30 18 -55 39
-36 31 -45 45 -45 71 0 42 -26 61 -52 38 -17 -15 -23 -12 -108 57 -86 71 -115
102 -81 89 9 -3 16 -1 16 5 0 6 7 8 17 4 11 -5 14 -3 8 6 -6 10 -2 11 15 6 17
-5 21 -4 15 6 -6 9 -3 11 8 6 10 -4 17 -2 17 4 0 6 7 9 15 5 8 -3 15 -1 15 5
0 6 7 9 15 5 8 -3 15 -1 15 4 0 18 24 10 93 -32z m342 -1198 c12 -25 39 -69
58 -99 42 -63 53 -102 37 -130 -27 -52 -147 -72 -199 -34 -46 34 -70 97 -73
197 l-3 89 65 27 c74 31 73 32 115 -50z m-412 -43 c16 -11 20 -32 24 -118 6
-121 -4 -164 -48 -208 -54 -55 -161 -51 -175 6 -9 35 3 74 68 218 30 66 57
128 61 138 6 16 8 16 29 -2 13 -11 31 -26 41 -34z"/>
<path d="M1041 1204 c0 -11 3 -14 6 -6 3 7 2 16 -1 19 -3 4 -6 -2 -5 -13z"/>
<path d="M1051 1154 c0 -11 3 -14 6 -6 3 7 2 16 -1 19 -3 4 -6 -2 -5 -13z"/>
</g>
</svg>
